<svg width="1440" height="980" viewBox="0 0 1440 980" fill="none" xmlns="http://www.w3.org/2000/svg">
  <rect width="1440" height="980" rx="36" fill="#0B0B0D"/>
  <rect x="38" y="38" width="1364" height="904" rx="28" fill="#1A1A1D" stroke="#36363A" stroke-width="2"/>
  <rect x="38" y="38" width="1364" height="74" rx="28" fill="#202023"/>
  <circle cx="78" cy="76" r="11" fill="#FF5F57"/>
  <circle cx="110" cy="76" r="11" fill="#FFBD2E"/>
  <circle cx="142" cy="76" r="11" fill="#28C840"/>
  <rect x="66" y="124" width="276" height="780" rx="24" fill="#2A2A2D"/>
  <text x="88" y="168" fill="#8D8D93" font-family="Helvetica, Arial, sans-serif" font-size="22">Location</text>
  <rect x="86" y="192" width="236" height="46" rx="14" fill="#4B4B50"/>
  <circle cx="112" cy="215" r="8" stroke="#F5F5F7" stroke-width="2"/>
  <text x="130" y="222" fill="#FFFFFF" font-family="Helvetica, Arial, sans-serif" font-size="24" font-weight="700">iCloud</text>
  <text x="414" y="84" fill="#F5F5F7" font-family="Helvetica, Arial, sans-serif" font-size="38" font-weight="700">Arca</text>
  <rect x="1002" y="54" width="170" height="42" rx="21" fill="#2C2C2F"/>
  <text x="1054" y="81" fill="#9C9CA4" font-family="Helvetica, Arial, sans-serif" font-size="20">Search</text>
  <rect x="1220" y="54" width="54" height="42" rx="12" fill="#2C2C2F"/>
  <rect x="1290" y="54" width="54" height="42" rx="12" fill="#2C2C2F"/>
  <rect x="360" y="124" width="1004" height="56" fill="#4F4925"/>
  <text x="390" y="160" fill="#F5F5F7" font-family="Helvetica, Arial, sans-serif" font-size="20" font-weight="700">Vault synced successfully</text>
  <rect x="412" y="224" width="176" height="50" rx="25" fill="#2F3D4E"/>
  <text x="474" y="256" fill="#FFFFFF" font-family="Helvetica, Arial, sans-serif" font-size="22" font-weight="700">All Items</text>
  <text x="626" y="256" fill="#8D8D93" font-family="Helvetica, Arial, sans-serif" font-size="22" font-weight="700">Secure Notes</text>
  <rect x="414" y="314" width="36" height="44" rx="8" stroke="#B5B5BA" stroke-width="4"/>
  <path d="M422 328H442" stroke="#B5B5BA" stroke-width="4" stroke-linecap="round"/>
  <path d="M422 340H442" stroke="#B5B5BA" stroke-width="4" stroke-linecap="round"/>
  <path d="M422 352H434" stroke="#B5B5BA" stroke-width="4" stroke-linecap="round"/>
  <text x="472" y="336" fill="#FFFFFF" font-family="Helvetica, Arial, sans-serif" font-size="34" font-weight="700">Travel Codes</text>
  <text x="472" y="370" fill="#8D8D93" font-family="Helvetica, Arial, sans-serif" font-size="22">Kind: Secure Note</text>
  <text x="472" y="400" fill="#8D8D93" font-family="Helvetica, Arial, sans-serif" font-size="22">Modified: Apr 26, 2026 at 10:02</text>
  <text x="404" y="500" fill="#E7E7EA" font-family="Helvetica, Arial, sans-serif" font-size="22" font-weight="700">Name</text>
  <text x="760" y="500" fill="#E7E7EA" font-family="Helvetica, Arial, sans-serif" font-size="22" font-weight="700">Kind</text>
  <text x="930" y="500" fill="#E7E7EA" font-family="Helvetica, Arial, sans-serif" font-size="22" font-weight="700">Date Modified</text>
  <text x="1212" y="500" fill="#E7E7EA" font-family="Helvetica, Arial, sans-serif" font-size="22" font-weight="700">Location</text>
  <rect x="390" y="520" width="938" height="40" fill="#173869"/>
  <rect x="390" y="560" width="938" height="40" fill="#2A2A2D"/>
  <path d="M390 600H1328" stroke="#3A3A3F" stroke-width="2"/>
  <text x="406" y="547" fill="#FFFFFF" font-family="Helvetica, Arial, sans-serif" font-size="21" font-weight="700">Travel Codes</text>
  <text x="760" y="547" fill="#FFFFFF" font-family="Helvetica, Arial, sans-serif" font-size="21">Secure Note</text>
  <text x="930" y="547" fill="#FFFFFF" font-family="Helvetica, Arial, sans-serif" font-size="21">Apr 26, 2026 at 10:02</text>
  <text x="1212" y="547" fill="#FFFFFF" font-family="Helvetica, Arial, sans-serif" font-size="21">iCloud</text>
  <text x="406" y="587" fill="#FFFFFF" font-family="Helvetica, Arial, sans-serif" font-size="21">Emergency Numbers</text>
  <text x="760" y="587" fill="#FFFFFF" font-family="Helvetica, Arial, sans-serif" font-size="21">Secure Note</text>
  <text x="930" y="587" fill="#FFFFFF" font-family="Helvetica, Arial, sans-serif" font-size="21">Apr 24, 2026 at 22:31</text>
  <text x="1212" y="587" fill="#FFFFFF" font-family="Helvetica, Arial, sans-serif" font-size="21">iCloud</text>
  <rect x="854" y="670" width="70" height="8" rx="4" fill="#5D5D62"/>
  <text x="404" y="770" fill="#E7E7EA" font-family="Helvetica, Arial, sans-serif" font-size="22" font-weight="700">Contents</text>
  <rect x="390" y="796" width="938" height="108" rx="20" fill="#232326" stroke="#3A3A3F" stroke-width="2"/>
  <text x="424" y="842" fill="#FFFFFF" font-family="Helvetica, Arial, sans-serif" font-size="28" font-weight="700">Hotel vault pin</text>
  <text x="424" y="878" fill="#FFFFFF" font-family="Helvetica, Arial, sans-serif" font-size="28">1457</text>
</svg>
