<svg width="1200" height="720" viewBox="0 0 1200 720" fill="none" xmlns="http://www.w3.org/2000/svg">
  <rect width="1200" height="720" fill="#F4F1EB"/>
  <rect x="82" y="92" width="1036" height="536" rx="22" fill="#F9F7F3" stroke="#D8D1C4" stroke-width="2"/>
  <rect x="82" y="92" width="1036" height="56" rx="22" fill="#ECE6DC"/>
  <circle cx="122" cy="120" r="8" fill="#C6B9A3"/>
  <circle cx="146" cy="120" r="8" fill="#C6B9A3"/>
  <circle cx="170" cy="120" r="8" fill="#C6B9A3"/>
  <rect x="106" y="176" width="194" height="428" rx="16" fill="#F2EEE7" stroke="#DED6C9"/>
  <text x="132" y="216" fill="#5C5346" font-family="Helvetica, Arial, sans-serif" font-size="24" font-weight="700">Location</text>
  <rect x="126" y="238" width="154" height="46" rx="10" fill="#E7E0D3"/>
  <text x="154" y="267" fill="#494136" font-family="Helvetica, Arial, sans-serif" font-size="22">iCloud</text>
  <rect x="326" y="176" width="766" height="70" rx="16" fill="#F9F7F3"/>
  <text x="354" y="219" fill="#2E2A24" font-family="Helvetica, Arial, sans-serif" font-size="32" font-weight="700">Arca</text>
  <rect x="806" y="190" width="52" height="40" rx="10" fill="#EEE8DD" stroke="#D7CFBF"/>
  <path d="M831 202V218M823 210H839" stroke="#51473C" stroke-width="2.5" stroke-linecap="round"/>
  <rect x="872" y="190" width="190" height="40" rx="12" fill="#FFFFFF" stroke="#D7CFBF"/>
  <text x="902" y="216" fill="#8D8274" font-family="Helvetica, Arial, sans-serif" font-size="20">Search</text>
  <rect x="326" y="256" width="766" height="128" rx="16" fill="#FFFFFF" stroke="#DED6C9"/>
  <rect x="366" y="278" width="228" height="34" rx="8" fill="#E8E1D6"/>
  <rect x="370" y="282" width="108" height="26" rx="6" fill="#D7CFBF"/>
  <text x="393" y="300" fill="#2E2A24" font-family="Helvetica, Arial, sans-serif" font-size="16" font-weight="700">All Items</text>
  <text x="496" y="300" fill="#5C5346" font-family="Helvetica, Arial, sans-serif" font-size="16">Secure Notes</text>
  <rect x="366" y="328" width="22" height="26" rx="4" fill="#D8D1C4"/>
  <text x="402" y="344" fill="#2E2A24" font-family="Helvetica, Arial, sans-serif" font-size="20" font-weight="700">Deployment Notes</text>
  <text x="402" y="363" fill="#6E6457" font-family="Helvetica, Arial, sans-serif" font-size="17">Kind: Secure Note</text>
  <text x="402" y="381" fill="#6E6457" font-family="Helvetica, Arial, sans-serif" font-size="17">Modified: Apr 1, 2026 at 10:42</text>
  <rect x="326" y="396" width="766" height="116" rx="16" fill="#FFFFFF" stroke="#DED6C9"/>
  <rect x="326" y="396" width="766" height="42" rx="16" fill="#ECE6DC"/>
  <text x="350" y="422" fill="#4B4338" font-family="Helvetica, Arial, sans-serif" font-size="17" font-weight="700">Name</text>
  <text x="623" y="422" fill="#4B4338" font-family="Helvetica, Arial, sans-serif" font-size="17" font-weight="700">Kind</text>
  <text x="757" y="422" fill="#4B4338" font-family="Helvetica, Arial, sans-serif" font-size="17" font-weight="700">Date Modified</text>
  <text x="972" y="422" fill="#4B4338" font-family="Helvetica, Arial, sans-serif" font-size="17" font-weight="700">Location</text>
  <rect x="326" y="438" width="766" height="34" fill="#F7F4EE"/>
  <rect x="326" y="472" width="766" height="34" fill="#EFEBE3"/>
  <text x="350" y="460" fill="#302B24" font-family="Helvetica, Arial, sans-serif" font-size="16">Deployment Notes</text>
  <text x="623" y="460" fill="#302B24" font-family="Helvetica, Arial, sans-serif" font-size="16">Secure Note</text>
  <text x="757" y="460" fill="#302B24" font-family="Helvetica, Arial, sans-serif" font-size="16">Apr 1, 2026</text>
  <text x="972" y="460" fill="#302B24" font-family="Helvetica, Arial, sans-serif" font-size="16">iCloud</text>
  <text x="350" y="494" fill="#302B24" font-family="Helvetica, Arial, sans-serif" font-size="16">VPN Recovery</text>
  <text x="623" y="494" fill="#302B24" font-family="Helvetica, Arial, sans-serif" font-size="16">Secure Note</text>
  <text x="757" y="494" fill="#302B24" font-family="Helvetica, Arial, sans-serif" font-size="16">Mar 28, 2026</text>
  <text x="972" y="494" fill="#302B24" font-family="Helvetica, Arial, sans-serif" font-size="16">iCloud</text>
  <rect x="326" y="524" width="766" height="80" rx="16" fill="#FFFFFF" stroke="#DED6C9"/>
  <text x="350" y="550" fill="#4B4338" font-family="Helvetica, Arial, sans-serif" font-size="17" font-weight="700">Contents</text>
  <text x="350" y="580" fill="#3C342C" font-family="Courier New, monospace" font-size="18">Primary VPN fallback code:</text>
  <text x="350" y="604" fill="#3C342C" font-family="Courier New, monospace" font-size="18">ARCA-4921-DELTA</text>
  <text x="82" y="56" fill="#2E2A24" font-family="Helvetica, Arial, sans-serif" font-size="44" font-weight="700">Arca</text>
  <text x="258" y="56" fill="#6E6457" font-family="Helvetica, Arial, sans-serif" font-size="24">A quiet replacement for Secure Notes on modern macOS.</text>
</svg>
